<?xml version="1.0" encoding="UTF-8"?>
<svg id="Layer_2" data-name="Layer 2" xmlns="http://www.w3.org/2000/svg" xmlns:xlink="http://www.w3.org/1999/xlink" viewBox="0 0 113.57 113.57">
  <defs>
    <style>
      .cls-1 {
        fill: #fff;
      }

      .cls-2 {
        fill: url(#linear-gradient);
      }
    </style>
    <linearGradient id="linear-gradient" x1="56.79" y1="26.57" x2="56.79" y2="84.44" gradientUnits="userSpaceOnUse">
      <stop offset="0" stop-color="#48c9ce"/>
      <stop offset="1" stop-color="#1c8696"/>
    </linearGradient>
  </defs>
  <g id="Layer_1-2" data-name="Layer 1">
    <g>
      <rect class="cls-1" width="113.57" height="113.57" rx="15.92" ry="15.92"/>
      <path class="cls-2" d="M95.56,76.8c-3.09-2.77-7.74-5.16-12.62-6.57,6.11-6.47,9.78-15.14,9.83-24.51v-1.37s-1.32-.34-1.32-.34c-3-.77-6-1.16-8.92-1.16-9.71,0-19,3.95-25.77,10.91-2.68-2.76-5.76-5.01-9.15-6.79,1.42-6.04,4.56-11.58,9.15-15.9,4.01,3.78,6.94,8.48,8.56,13.65,1.05-.53,2.12-1.01,3.21-1.44-2-6.11-5.63-11.63-10.63-15.9l-1.14-.97-1.14.97c-7.88,6.73-12.39,16.53-12.39,26.88,0,8.71,3.23,17,8.94,23.43-.11-.02-.22-.03-.36-.06-1.06-.16-2.1-.37-3.09-.63-13.88-3.54-23.75-15.73-24.42-29.92,5.99-1.28,11.75-.85,17.12,1.01.2-1.16.46-2.31.77-3.44-6.32-2.1-13.13-2.43-20.11-.65l-1.33.34v1.37c.05,9.38,3.73,18.05,9.84,24.53-4.86,1.42-9.49,3.8-12.58,6.56l-1.46,1.31,1.46,1.31c5.5,4.93,13.48,7.76,21.89,7.76,6.14,0,11.94-1.47,16.88-4.23,4.94,2.76,10.74,4.23,16.88,4.23,8.41,0,16.39-2.83,21.89-7.76l1.46-1.31-1.46-1.31ZM89.22,47.09c-.67,14.19-10.54,26.38-24.42,29.92-.99.25-2.03.47-3.24.65-.07.01-.14.02-.2.03,5.7-6.43,8.93-14.73,8.93-23.43,0-1.78-.19-3.53-.46-5.27,3.98-1.7,8.29-2.64,12.7-2.64,2.18,0,4.43.24,6.69.73ZM46.96,50.65c3.18,1.8,6.04,4.07,8.48,6.85l1.32,1.51,1.32-1.51c2.43-2.78,5.3-5.08,8.44-6.87.15,1.2.26,2.41.26,3.63,0,8.81-3.63,17.17-10.02,23.19-6.39-6.02-10.02-14.38-10.02-23.19,0-1.22.08-2.42.22-3.62ZM21.98,78.12c3.1-2.22,7.4-4.09,11.64-5.04,4.04,3.4,8.85,5.96,14.23,7.33,1.11.28,2.26.52,3.55.72.29.05.59.09.89.13-3.76,1.58-7.97,2.4-12.37,2.4-6.76,0-13.17-2-17.93-5.54ZM73.67,83.66c-4.41,0-8.62-.82-12.38-2.41.29-.04.58-.09.96-.15,1.17-.18,2.32-.41,3.43-.7,5.38-1.37,10.19-3.94,14.24-7.34,4.25.95,8.57,2.83,11.68,5.05-4.76,3.54-11.17,5.54-17.93,5.54Z"/>
    </g>
  </g>
</svg>