<svg width="200" height="200" viewBox="0 0 47 47" fill="none" xmlns="http://www.w3.org/2000/svg">
<g clip-path="url(#clip0_411_98)">
<path d="M0.908203 37.6164C1.47972 36.5848 2.2735 35.8548 3.44829 35.5374C5.09935 35.1089 6.71866 35.7596 7.57593 37.2196C7.67119 37.3783 7.71882 37.5529 7.9887 37.5053C9.56038 37.172 11.4654 38.2194 11.9893 40.0603C12.0052 40.1238 12.037 40.2032 12.0528 40.2984C12.1322 40.3143 12.2116 40.3301 12.291 40.346C13.8785 40.4412 15.1962 41.7426 15.2756 43.3454C15.3073 43.8691 15.4185 44.3452 15.9582 44.5674C16.6409 44.8531 17.3394 44.377 17.387 43.6152C17.4823 42.5202 18.1014 41.7743 19.1016 41.6315C19.435 41.5839 19.8001 41.6632 20.1652 41.6791C20.2605 40.6317 20.3558 39.5684 20.451 38.5051C20.6098 36.7276 20.8003 34.9343 20.8796 33.1569C20.9114 32.3793 20.7209 31.5858 20.6256 30.7923C20.578 30.7923 20.5145 30.7923 20.4669 30.7764C20.2923 31.2049 20.1017 31.6334 19.9589 32.0777C19.6731 32.8871 19.181 33.2839 18.4189 33.2521C17.6728 33.2362 17.1648 32.8078 16.9425 31.9825C16.7203 31.1255 16.5139 30.2527 16.2916 29.3005C16.0217 29.5385 15.7518 29.729 15.5455 29.967C14.9104 30.7447 14.2595 31.5223 13.6721 32.3475C12.8625 33.4743 11.0686 33.633 10.1795 32.5538C9.95727 32.284 9.75089 31.8873 9.73501 31.5382C9.52863 27.6024 10.6717 24.111 13.3864 21.2227C14.0055 20.5561 14.7993 20.0324 15.4978 19.4294C15.6407 19.3024 15.7836 19.0961 15.7995 18.9215C16.4186 12.5894 18.4031 6.76513 22.2132 1.60739C22.8958 0.686928 24.0706 0.702798 24.7533 1.62326C27.6903 5.59075 29.5795 10.0343 30.532 14.8588C30.8019 16.2395 30.9447 17.6361 31.167 19.0326C31.1829 19.1596 31.2781 19.3024 31.3734 19.3659C34.6755 21.5718 36.4853 24.7141 37.1203 28.5705C37.2791 29.5385 37.2315 30.5384 37.2315 31.5064C37.2315 32.0936 36.8981 32.5697 36.4218 32.903C35.4217 33.6013 33.9294 33.3156 33.2785 32.284C32.6434 31.2842 31.929 30.3638 31.0241 29.5862C30.913 29.4909 30.8019 29.4116 30.659 29.3005C30.4367 30.2051 30.2462 31.0779 30.024 31.9349C29.8017 32.7919 29.3096 33.2204 28.5317 33.2362C27.7696 33.2521 27.2934 32.8712 26.9917 32.046C26.8489 31.6175 26.6584 31.2049 26.4996 30.7923C26.452 30.7923 26.4043 30.7923 26.3726 30.7923C26.2615 31.4429 26.0233 32.1095 26.0551 32.7601C26.1186 34.3789 26.2932 35.9818 26.4361 37.5846C26.5472 38.9494 26.6742 40.2984 26.7854 41.6791C27.1505 41.6632 27.5156 41.5839 27.8649 41.6473C28.8174 41.7902 29.4683 42.5361 29.5636 43.52C29.6271 44.25 30.0398 44.6785 30.6272 44.6626C31.2305 44.6468 31.6433 44.2183 31.675 43.4724C31.7385 42.2663 32.2942 41.3617 33.3261 40.7904C33.8023 40.5206 34.358 40.4253 34.9454 40.2349C35.2947 38.9653 36.1202 37.9972 37.5331 37.6164C37.9617 37.5053 38.438 37.4894 38.8825 37.5211C39.1683 37.5529 39.2953 37.4735 39.4223 37.2355C40.8193 34.9343 44.0262 34.7915 45.6296 36.9657C45.9313 37.3783 46.1377 37.8068 46.09 38.3464C46.0583 38.632 46.09 38.9336 46.09 39.2351C46.09 39.5049 46.1694 39.8064 45.7408 39.854C45.3598 39.9016 45.0422 39.6953 44.947 39.3303C44.9152 39.1875 44.8994 39.0447 44.8835 38.9018C44.7565 37.7275 43.7722 36.8705 42.5974 36.8863C41.4226 36.9022 40.4542 37.8068 40.359 38.9653C40.3113 39.5684 40.1049 39.8382 39.6763 39.8699C39.2318 39.9016 38.9778 39.616 38.8825 39.0129C37.3585 38.6479 36.0567 40.0127 36.3901 41.5997C36.4218 41.7267 36.4536 41.8536 36.4694 41.9806C36.5012 42.3773 36.2948 42.6313 35.9297 42.7265C35.5487 42.8217 35.2629 42.6471 35.1041 42.298C35.0248 42.1393 34.993 41.9647 34.9454 41.806C33.9294 41.8219 33.1673 42.5202 33.1356 43.5359C33.0879 44.8213 32.4688 45.6466 31.2305 46.0433C31.2146 46.0433 31.1988 46.0909 31.1829 46.1068C30.8336 46.1068 30.4844 46.1068 30.1192 46.1068C28.8809 45.6942 28.1665 44.8689 28.0872 43.5359C28.0713 43.2185 27.849 43.0756 27.5315 43.0915C27.214 43.1074 27.0394 43.2978 27.0235 43.5835C27.0076 43.885 27.0235 44.2024 27.0076 44.5039C26.9917 44.9007 26.7219 45.1705 26.3567 45.2022C25.9916 45.2339 25.6741 45.0118 25.6106 44.615C25.5471 44.25 25.5312 43.885 25.4994 43.52C25.3407 41.5839 25.166 39.6636 25.0073 37.7275C24.8803 36.2515 24.7533 34.7756 24.6263 33.2839C23.8643 33.2839 23.134 33.2839 22.372 33.2839C22.3243 33.8869 22.2767 34.4424 22.2291 35.0137C22.0386 37.3307 21.8322 39.6636 21.6417 41.9806C21.5623 42.8535 21.4988 43.7422 21.3877 44.615C21.34 45.0118 21.0067 45.2339 20.6415 45.2022C20.2764 45.1705 20.0065 44.8848 19.9906 44.5039C19.9747 44.2341 19.9906 43.9802 19.9906 43.7104C19.9906 43.3613 19.8636 43.1074 19.4667 43.0756C19.0857 43.0598 18.927 43.2819 18.8952 43.6469C18.7841 44.8531 18.1808 45.6624 16.9901 46.0116C16.9584 46.0274 16.9108 46.0592 16.879 46.0909C16.5297 46.0909 16.1805 46.0909 15.8153 46.0909C14.5771 45.6307 13.8944 44.7896 13.8468 43.393C13.7992 42.4091 12.9419 41.7267 12.0528 41.806C11.9893 41.9965 11.9417 42.171 11.8465 42.3456C11.6877 42.6471 11.4019 42.79 11.0686 42.7106C10.7193 42.6313 10.497 42.3932 10.5129 42.0123C10.5129 41.8695 10.5605 41.7267 10.5923 41.5839C10.9416 40.0127 9.65563 38.6638 8.1157 38.9812C8.02045 39.6001 7.78232 39.8699 7.3378 39.854C6.89329 39.8382 6.6869 39.5525 6.63928 38.9177C6.6234 38.6955 6.57578 38.4892 6.4964 38.2829C6.13126 37.299 5.1311 36.7594 3.97218 36.9181C2.95615 37.0609 2.22587 37.8227 2.13062 38.8701C2.03537 39.7747 1.70198 40.0127 0.908203 39.7429C0.908203 39.0288 0.908203 38.3305 0.908203 37.6164ZM28.4682 31.7921C28.4999 31.7921 28.5317 31.7762 28.5634 31.7762C28.611 31.6334 28.6587 31.5064 28.6904 31.3636C29.77 27.2374 30.0875 23.0477 29.6906 18.7946C29.3889 15.6364 28.6587 12.5894 27.5315 9.62172C27.4204 9.33606 27.2934 9.2091 26.9759 9.22497C24.658 9.24084 22.3243 9.24084 20.0065 9.22497C19.7207 9.22497 19.562 9.30433 19.4508 9.57411C18.0538 13.1607 17.3076 16.8902 17.1489 20.7148C17.0219 23.6508 17.2283 26.555 17.8474 29.4275C18.022 30.221 18.2126 30.9986 18.4031 31.7921C18.4507 31.7921 18.4824 31.7921 18.5301 31.7921C18.5777 31.6651 18.6253 31.5382 18.6729 31.4112C19.1968 29.9512 19.943 28.634 21.1813 27.65C22.6895 26.4439 24.3564 26.4598 25.8487 27.6659C26.9441 28.5546 27.6585 29.6972 28.1824 30.9827C28.2777 31.2525 28.3729 31.5223 28.4682 31.7921ZM31.3416 21.1116C31.3099 21.1751 31.2781 21.2068 31.2781 21.2227C31.3416 23.3016 31.2146 25.3806 30.9606 27.4596C30.9447 27.5707 31.0559 27.7611 31.167 27.8246C32.4847 28.7927 33.5801 29.967 34.4056 31.3795C34.6596 31.808 35.0089 31.8714 35.4058 31.7921C35.8185 31.7127 35.8185 31.3636 35.8344 31.0303C35.882 28.1261 35.0883 25.4758 33.342 23.1429C32.7863 22.3653 32.1195 21.6829 31.3416 21.1116ZM15.6566 21.1116C14.6088 21.9051 13.7992 22.8255 13.1165 23.8888C11.7036 26.1106 11.1003 28.5546 11.1638 31.1731C11.1797 31.6175 11.3543 31.7762 11.7671 31.8079C12.1481 31.8397 12.3862 31.681 12.5926 31.3477C13.434 29.967 14.5136 28.7927 15.8153 27.8246C15.9265 27.7294 16.0217 27.5231 16.0217 27.3644C15.9265 25.3647 15.7995 23.3493 15.6883 21.3496C15.6725 21.2862 15.6566 21.2227 15.6566 21.1116ZM20.3399 7.7332C22.4513 7.7332 24.5469 7.7332 26.7219 7.7332C25.8328 5.79706 24.8009 4.01962 23.5309 2.36915C22.6736 3.21025 20.5304 6.82861 20.3399 7.7332ZM24.6898 31.7762C24.8803 30.951 25.0549 30.1416 25.2295 29.3322C25.2454 29.2211 25.1819 29.0466 25.1025 28.9514C24.1341 27.9515 22.8482 27.9515 21.8798 28.9514C21.8004 29.0307 21.7369 29.2053 21.7528 29.3322C21.9116 30.1416 22.1021 30.951 22.2926 31.7762C23.1022 31.7762 23.8801 31.7762 24.6898 31.7762Z" fill="white"/>
<path d="M23.4993 19.3819C21.372 19.3819 19.7051 17.6997 19.7051 15.5731C19.7051 13.4941 21.4196 11.796 23.4993 11.796C25.5949 11.796 27.2936 13.5258 27.2936 15.6207C27.2777 17.7155 25.5949 19.3819 23.4993 19.3819ZM23.4993 13.2719C22.1817 13.2719 21.1339 14.3035 21.1339 15.6048C21.1339 16.8903 22.2134 17.9694 23.4993 17.9536C24.7694 17.9536 25.8172 16.9062 25.833 15.6207C25.8648 14.3193 24.817 13.2719 23.4993 13.2719Z" fill="white"/>
</g>
<defs>
<clipPath id="clip0_411_98">
<rect width="45.1818" height="45.1818" fill="white" transform="translate(0.908203 0.909302)"/>
</clipPath>
</defs>
</svg>
