<?xml version="1.0" encoding="UTF-8"?>
<svg width="100" id="Layer_2" data-name="Layer 2" xmlns="http://www.w3.org/2000/svg" xmlns:xlink="http://www.w3.org/1999/xlink" viewBox="0 0 138.66 104.71">
  <defs>
    <style>
      .cls-1 {
        fill: url(#linear-gradient);
      }
    </style>
    <linearGradient id="linear-gradient" x1="69.33" y1=".29" x2="69.33" y2="100" gradientUnits="userSpaceOnUse">
      <stop offset="0" stop-color="#48c9ce"/>
      <stop offset="1" stop-color="#1c8696"/>
    </linearGradient>
  </defs>
  <g id="Layer_1-2" data-name="Layer 1">
    <path class="cls-1" d="M136.14,86.84c-5.33-4.77-13.34-8.89-21.74-11.33,10.52-11.15,16.86-26.09,16.93-42.24v-2.36s-2.28-.58-2.28-.58c-5.18-1.32-10.35-1.99-15.37-1.99-16.74,0-32.74,6.81-44.41,18.79-4.61-4.75-9.92-8.64-15.76-11.7,2.45-10.41,7.85-19.96,15.76-27.4,6.92,6.51,11.95,14.62,14.74,23.52,1.81-.91,3.65-1.74,5.54-2.49-3.44-10.53-9.7-20.03-18.32-27.4l-1.97-1.68-1.97,1.68c-13.57,11.59-21.35,28.48-21.35,46.33,0,15,5.57,29.29,15.4,40.38-.2-.03-.38-.06-.62-.1-1.82-.28-3.61-.64-5.33-1.08-23.92-6.11-40.92-27.11-42.07-51.56,10.32-2.21,20.25-1.46,29.5,1.73.34-2,.8-3.97,1.32-5.92-10.89-3.62-22.62-4.2-34.66-1.13l-2.29.58v2.36c.08,16.16,6.43,31.11,16.96,42.26-8.38,2.45-16.36,6.55-21.67,11.31l-2.51,2.25,2.52,2.25c9.48,8.49,23.23,13.36,37.73,13.36,10.57,0,20.58-2.53,29.09-7.29,8.51,4.76,18.51,7.29,29.09,7.29,14.5,0,28.25-4.87,37.73-13.36l2.51-2.25-2.51-2.25ZM125.23,35.64c-1.15,24.45-18.16,45.45-42.08,51.56-1.71.44-3.5.8-5.59,1.13-.12.02-.23.03-.35.05,9.83-11.09,15.39-25.38,15.39-40.37,0-3.07-.33-6.09-.8-9.07,6.86-2.93,14.28-4.54,21.89-4.54,3.76,0,7.63.42,11.53,1.25ZM52.4,41.77c5.47,3.1,10.41,7,14.61,11.81l2.28,2.61,2.28-2.61c4.19-4.8,9.13-8.76,14.54-11.84.26,2.07.45,4.15.45,6.26,0,15.17-6.26,29.59-17.27,39.96-11.01-10.37-17.27-24.78-17.27-39.96,0-2.1.15-4.17.38-6.23ZM9.35,89.12c5.34-3.82,12.75-7.05,20.05-8.69,6.97,5.85,15.26,10.27,24.52,12.63,1.9.49,3.89.89,6.12,1.24.51.08,1.01.16,1.53.23-6.48,2.72-13.73,4.14-21.32,4.14-11.65,0-22.69-3.44-30.9-9.54ZM98.42,98.66c-7.59,0-14.85-1.42-21.33-4.15.49-.07,1-.15,1.65-.26,2.02-.31,4.01-.71,5.91-1.2,9.27-2.37,17.57-6.79,24.54-12.65,7.33,1.64,14.77,4.87,20.13,8.71-8.2,6.1-19.25,9.54-30.89,9.54Z"/>
  </g>
</svg>