<?xml version="1.0" encoding="UTF-8"?>
<svg width="150" id="Layer_2" data-name="Layer 2" xmlns="http://www.w3.org/2000/svg" xmlns:xlink="http://www.w3.org/1999/xlink" viewBox="0 0 293.46 70.4">
  <defs>
    <style>
      .cls-1 {
        fill: #fff;
      }

      .cls-2 {
        fill: url(#linear-gradient);
      }
    </style>
    <linearGradient id="linear-gradient" x1="46.61" y1=".2" x2="46.61" y2="67.23" gradientUnits="userSpaceOnUse">
      <stop offset="0" stop-color="#48c9ce"/>
      <stop offset="1" stop-color="#1c8696"/>
    </linearGradient>
  </defs>
  <g id="Layer_1-2" data-name="Layer 1">
    <g>
      <path class="cls-2" d="M91.53,58.38c-3.58-3.21-8.97-5.97-14.62-7.62,7.07-7.5,11.33-17.54,11.38-28.4v-1.59s-1.53-.39-1.53-.39c-3.48-.89-6.96-1.34-10.33-1.34-11.25,0-22.01,4.58-29.85,12.64-3.1-3.19-6.67-5.81-10.6-7.86,1.65-7,5.28-13.42,10.6-18.42,4.65,4.37,8.04,9.83,9.91,15.81,1.22-.61,2.46-1.17,3.72-1.67-2.31-7.08-6.52-13.47-12.31-18.42l-1.32-1.13-1.32,1.13c-9.12,7.79-14.36,19.14-14.36,31.14,0,10.09,3.74,19.69,10.35,27.15-.13-.02-.25-.04-.41-.07-1.22-.19-2.43-.43-3.58-.73-16.08-4.11-27.51-18.22-28.29-34.66,6.94-1.49,13.62-.98,19.83,1.17.23-1.35.54-2.67.89-3.98-7.32-2.43-15.21-2.82-23.3-.76l-1.54.39v1.59c.06,10.86,4.32,20.91,11.4,28.41-5.63,1.64-11,4.4-14.57,7.6l-1.69,1.51,1.69,1.51c6.37,5.71,15.62,8.98,25.36,8.98,7.11,0,13.83-1.7,19.56-4.9,5.72,3.2,12.45,4.9,19.56,4.9,9.74,0,18.99-3.27,25.36-8.98l1.69-1.51-1.69-1.51ZM84.19,23.96c-.78,16.44-12.21,30.56-28.29,34.66-1.15.29-2.36.54-3.76.76-.08.01-.16.02-.23.04,6.61-7.45,10.35-17.06,10.35-27.14,0-2.06-.22-4.09-.54-6.1,4.61-1.97,9.6-3.05,14.72-3.05,2.53,0,5.13.28,7.75.84ZM35.23,28.08c3.68,2.08,7,4.71,9.82,7.94l1.53,1.75,1.53-1.75c2.82-3.23,6.14-5.89,9.77-7.96.17,1.39.3,2.79.3,4.21,0,10.2-4.21,19.9-11.61,26.87-7.4-6.97-11.61-16.66-11.61-26.87,0-1.41.1-2.81.26-4.19ZM6.28,59.91c3.59-2.57,8.57-4.74,13.48-5.84,4.68,3.94,10.26,6.9,16.48,8.49,1.28.33,2.62.6,4.11.83.34.06.68.11,1.03.15-4.36,1.83-9.23,2.78-14.33,2.78-7.83,0-15.26-2.32-20.77-6.42ZM66.16,66.33c-5.11,0-9.98-.95-14.34-2.79.33-.05.67-.1,1.11-.17,1.36-.21,2.69-.48,3.97-.81,6.23-1.59,11.81-4.56,16.5-8.5,4.93,1.1,9.93,3.28,13.53,5.85-5.51,4.1-12.94,6.42-20.77,6.42Z"/>
      <g>
        <path class="cls-1" d="M111.35,29.47l-7.14-26.19h4.51l5.52,20.47,5.95-20.47h3.97l5.91,20.47,5.5-20.47h4.24l-7.12,26.19h-4.98l-5.54-19.19-5.58,19.19h-5.24Z"/>
        <path class="cls-1" d="M150.49,29.96c-2.75,0-5.08-.95-7-2.84-1.92-1.89-2.88-4.23-2.88-7s.96-5.1,2.88-7c1.92-1.9,4.25-2.84,7-2.84s5.11.95,7.01,2.84c1.91,1.89,2.86,4.23,2.86,7s-.95,5.1-2.86,7c-1.91,1.9-4.25,2.84-7.01,2.84ZM146.34,24.34c1.12,1.12,2.51,1.68,4.15,1.68s3.03-.56,4.15-1.68c1.12-1.12,1.68-2.53,1.68-4.23s-.56-3.11-1.68-4.23c-1.12-1.12-2.51-1.68-4.15-1.68s-3.03.56-4.15,1.68c-1.12,1.12-1.68,2.53-1.68,4.23s.56,3.11,1.68,4.23Z"/>
        <path class="cls-1" d="M168.79,13.9c1.02-2.32,2.94-3.48,5.76-3.48v4.38c-1.55-.1-2.89.27-4.04,1.1-1.15.84-1.72,2.21-1.72,4.13v9.43h-4.04V10.76h4.04v3.14Z"/>
        <path class="cls-1" d="M178.26,29.47V2.16h4.04v27.31h-4.04Z"/>
        <path class="cls-1" d="M202.5,3.28h4.04v26.19h-4.04v-2.69c-1.52,2.12-3.7,3.18-6.55,3.18-2.57,0-4.76-.95-6.59-2.86-1.82-1.91-2.73-4.23-2.73-6.98s.91-5.1,2.73-7c1.82-1.9,4.02-2.84,6.59-2.84,2.84,0,5.03,1.05,6.55,3.14V3.28ZM192.36,24.4c1.12,1.14,2.53,1.7,4.23,1.7s3.11-.57,4.23-1.7c1.12-1.13,1.68-2.56,1.68-4.28s-.56-3.15-1.68-4.28c-1.12-1.13-2.53-1.7-4.23-1.7s-3.11.57-4.23,1.7c-1.12,1.14-1.68,2.56-1.68,4.28s.56,3.15,1.68,4.28Z"/>
        <path class="cls-1" d="M233.52,10.76h4.27l-5.87,18.71h-3.97l-3.97-12.77-3.97,12.77h-4.29l-5.44-18.71h4.28l3.62,12.91,3.93-12.91h3.87l3.89,12.9,3.65-12.9Z"/>
        <path class="cls-1" d="M245.32,7.19c-.51.51-1.12.77-1.81.77s-1.3-.26-1.82-.77c-.51-.51-.77-1.12-.77-1.81s.25-1.3.75-1.81c.5-.51,1.11-.77,1.83-.77s1.33.26,1.83.77c.5.51.75,1.12.75,1.81s-.25,1.3-.77,1.81ZM241.49,29.47V10.76h4.04v18.71h-4.04Z"/>
        <path class="cls-1" d="M265.73,3.28h4.04v26.19h-4.04v-2.69c-1.52,2.12-3.7,3.18-6.55,3.18-2.57,0-4.76-.95-6.59-2.86-1.82-1.91-2.73-4.23-2.73-6.98s.91-5.1,2.73-7c1.82-1.9,4.02-2.84,6.59-2.84,2.84,0,5.03,1.05,6.55,3.14V3.28ZM255.59,24.4c1.12,1.14,2.53,1.7,4.23,1.7s3.11-.57,4.23-1.7c1.12-1.13,1.68-2.56,1.68-4.28s-.56-3.15-1.68-4.28c-1.12-1.13-2.53-1.7-4.23-1.7s-3.11.57-4.23,1.7c-1.12,1.14-1.68,2.56-1.68,4.28s.56,3.15,1.68,4.28Z"/>
        <path class="cls-1" d="M278.38,21.84c.3,1.42.99,2.51,2.06,3.27s2.38,1.14,3.93,1.14c2.15,0,3.75-.77,4.83-2.32l3.33,1.95c-1.85,2.72-4.58,4.08-8.19,4.08-3.04,0-5.5-.93-7.37-2.79-1.87-1.86-2.81-4.21-2.81-7.05s.92-5.13,2.77-7.01c1.85-1.88,4.22-2.82,7.11-2.82,2.74,0,5,.96,6.75,2.88,1.76,1.92,2.64,4.25,2.64,7,0,.43-.05.99-.15,1.68h-14.89ZM278.34,18.54h11c-.28-1.52-.9-2.67-1.89-3.44s-2.14-1.16-3.46-1.16c-1.5,0-2.75.41-3.74,1.23-1,.82-1.64,1.95-1.91,3.37Z"/>
        <path class="cls-1" d="M127.99,64.29c-2.63,2.63-5.84,3.95-9.64,3.95s-7-1.32-9.63-3.95c-2.63-2.63-3.95-5.84-3.95-9.64s1.32-7,3.95-9.63c2.63-2.63,5.84-3.95,9.63-3.95s7,1.32,9.64,3.95c2.63,2.63,3.95,5.84,3.95,9.63s-1.32,7.01-3.95,9.64ZM111.75,61.37c1.78,1.78,3.98,2.68,6.6,2.68s4.82-.89,6.6-2.68c1.78-1.78,2.67-4.02,2.67-6.72s-.89-4.93-2.67-6.72c-1.79-1.78-3.99-2.68-6.6-2.68s-4.82.89-6.6,2.68-2.68,4.02-2.68,6.72.89,4.93,2.68,6.72Z"/>
        <path class="cls-1" d="M147.32,48.56c2.57,0,4.76.95,6.58,2.84,1.82,1.9,2.73,4.23,2.73,7s-.91,5.07-2.73,6.98c-1.82,1.91-4.02,2.86-6.58,2.86-2.84,0-5.03-1.06-6.55-3.18v2.69h-4.04v-26.19h4.04v10.14c1.52-2.09,3.71-3.14,6.55-3.14ZM142.45,62.68c1.12,1.14,2.53,1.7,4.23,1.7s3.11-.57,4.23-1.7c1.12-1.13,1.68-2.56,1.68-4.28s-.56-3.15-1.68-4.29c-1.12-1.13-2.53-1.7-4.23-1.7s-3.11.57-4.23,1.7c-1.12,1.14-1.68,2.56-1.68,4.29s.56,3.15,1.68,4.28Z"/>
        <path class="cls-1" d="M165.25,45.47c-.51.51-1.12.77-1.81.77s-1.3-.25-1.82-.77c-.51-.51-.77-1.11-.77-1.81s.25-1.3.75-1.82c.5-.51,1.11-.77,1.83-.77s1.33.25,1.83.77.75,1.12.75,1.82-.25,1.3-.77,1.81ZM161.42,67.75v-18.71h4.04v18.71h-4.04Z"/>
        <path class="cls-1" d="M181.7,52.94h-4.64v8.98c0,.77.17,1.33.52,1.67.35.34.87.52,1.55.56.68.04,1.54.03,2.56-.02v3.63c-3.09.37-5.31.11-6.66-.8-1.35-.91-2.02-2.59-2.02-5.03v-8.98h-3.44v-3.89h3.44v-4.04l4.04-1.2v5.24h4.64v3.89Z"/>
        <path class="cls-1" d="M199.28,49.04h4.04v18.71h-4.04v-2.4c-1.22,1.92-3.15,2.88-5.8,2.88-2.15,0-3.88-.68-5.2-2.06-1.32-1.37-1.98-3.25-1.98-5.65v-11.49h4.04v11.08c0,1.4.37,2.47,1.12,3.22s1.77,1.12,3.07,1.12c1.42,0,2.57-.44,3.44-1.33.87-.88,1.31-2.24,1.31-4.06v-10.03Z"/>
        <path class="cls-1" d="M223.98,49.04h4.04v18.71h-4.04v-2.69c-1.52,2.12-3.7,3.18-6.55,3.18-2.57,0-4.76-.95-6.59-2.86-1.82-1.91-2.73-4.23-2.73-6.98s.91-5.1,2.73-7c1.82-1.89,4.02-2.84,6.59-2.84,2.84,0,5.03,1.05,6.55,3.14v-2.66ZM213.84,62.68c1.12,1.14,2.53,1.7,4.23,1.7s3.11-.57,4.23-1.7c1.12-1.13,1.68-2.56,1.68-4.28s-.56-3.15-1.68-4.29c-1.12-1.13-2.53-1.7-4.23-1.7s-3.11.57-4.23,1.7c-1.12,1.14-1.68,2.56-1.68,4.29s.56,3.15,1.68,4.28Z"/>
        <path class="cls-1" d="M237.9,52.19c1.02-2.32,2.94-3.48,5.76-3.48v4.38c-1.55-.1-2.89.27-4.04,1.1-1.15.84-1.72,2.22-1.72,4.14v9.43h-4.04v-18.71h4.04v3.15Z"/>
        <path class="cls-1" d="M251.61,45.47c-.51.51-1.12.77-1.81.77s-1.3-.25-1.82-.77c-.51-.51-.77-1.11-.77-1.81s.25-1.3.75-1.82c.5-.51,1.11-.77,1.83-.77s1.33.25,1.83.77.75,1.12.75,1.82-.25,1.3-.77,1.81ZM247.78,67.75v-18.71h4.04v18.71h-4.04Z"/>
        <path class="cls-1" d="M260.8,60.12c.3,1.42.99,2.51,2.06,3.27,1.07.76,2.38,1.14,3.93,1.14,2.15,0,3.75-.77,4.83-2.32l3.33,1.95c-1.85,2.72-4.58,4.08-8.19,4.08-3.04,0-5.5-.93-7.37-2.79-1.87-1.86-2.81-4.21-2.81-7.05s.92-5.13,2.77-7.02,4.22-2.82,7.11-2.82c2.74,0,5,.96,6.75,2.88,1.76,1.92,2.64,4.25,2.64,7,0,.42-.05.99-.15,1.68h-14.89ZM260.76,56.83h11c-.28-1.52-.9-2.67-1.89-3.44s-2.14-1.16-3.46-1.16c-1.5,0-2.75.41-3.74,1.23-1,.82-1.64,1.95-1.91,3.37Z"/>
        <path class="cls-1" d="M283.39,54.18c0,.61.35,1.1,1.04,1.46.69.36,1.52.68,2.49.98.97.3,1.96.6,2.97.92,1.01.31,1.86.89,2.54,1.74.68.85,1.02,1.91,1.02,3.2,0,1.8-.69,3.21-2.08,4.23-1.39,1.02-3.12,1.53-5.22,1.53-1.85,0-3.43-.39-4.75-1.16s-2.28-1.85-2.88-3.22l3.48-2.02c.65,1.8,2.03,2.69,4.15,2.69s3.18-.7,3.18-2.1c0-.6-.34-1.08-1.03-1.46-.69-.37-1.51-.71-2.48-1.01-.97-.3-1.96-.61-2.97-.92-1.01-.31-1.86-.87-2.55-1.68-.69-.81-1.03-1.84-1.03-3.09,0-1.72.65-3.11,1.96-4.15,1.31-1.05,2.94-1.57,4.88-1.57,1.55,0,2.93.34,4.13,1.03,1.21.68,2.14,1.64,2.79,2.86l-3.4,1.91c-.65-1.42-1.82-2.13-3.52-2.13-.77,0-1.42.17-1.95.5-.52.33-.79.82-.79,1.46Z"/>
      </g>
    </g>
  </g>
</svg>